<?xml version="1.0" standalone="no"?><!DOCTYPE svg PUBLIC "-//W3C//DTD SVG 1.1//EN" "http://www.w3.org/Graphics/SVG/1.1/DTD/svg11.dtd"><svg t="1679363522737" class="icon" viewBox="0 0 1024 1024" version="1.1" xmlns="http://www.w3.org/2000/svg" p-id="2811" xmlns:xlink="http://www.w3.org/1999/xlink" width="200" height="200"><path d="M945.230769 703.015385l-47.261538-200.861539c-5.907692-21.661538-33.476923-29.538462-49.230769-15.753846l-151.63077 139.815385c-17.723077 15.753846-9.846154 43.323077 11.815385 49.230769l64.984615 19.692308c-5.907692 13.784615-11.815385 27.569231-19.692307 39.384615-35.446154 59.076923-92.553846 96.492308-183.138462 108.307692v-492.307692c51.2-21.661538 86.646154-72.861538 86.646154-131.938462 0-78.769231-64.984615-143.753846-143.753846-143.753846-80.738462 0-143.753846 64.984615-143.753846 143.753846 0 59.076923 35.446154 108.307692 86.646153 131.938462v492.307692c-90.584615-11.815385-147.692308-49.230769-183.138461-108.307692-7.876923-13.784615-13.784615-25.6-19.692308-39.384615l64.984616-19.692308c21.661538-5.907692 27.569231-35.446154 11.815384-49.230769l-153.6-137.846154c-17.723077-15.753846-43.323077-7.876923-49.230769 15.753846L78.769231 703.015385c-5.907692 21.661538 15.753846 41.353846 37.415384 35.446153l51.2-15.753846c7.876923 21.661538 15.753846 41.353846 27.569231 61.046154 57.107692 96.492308 161.476923 153.6 315.076923 153.6s256-57.107692 315.076923-153.6c11.815385-19.692308 21.661538-41.353846 27.569231-61.046154l51.2 15.753846c25.6 5.907692 45.292308-13.784615 41.353846-35.446153zM512 279.630769c-31.507692 0-57.107692-25.6-57.107692-57.107692s25.6-57.107692 57.107692-57.107692 57.107692 25.6 57.107692 57.107692-25.6 57.107692-57.107692 57.107692z" fill="#FFFFFF" p-id="2812"></path></svg>