<svg width="16" height="16" xmlns="http://www.w3.org/2000/svg" fill="none">

 <g>
  <title>background</title>
  <rect fill="none" id="canvas_background" height="795" width="1662" y="-1" x="-1"/>
 </g>
 <g>
  <title>Layer 1</title>
  <path stroke="null" id="svg_1" fill="#FBFBFE" d="m1.702945,1.808794l0,12.488261l12.488261,0l0,-5.108834l1.702945,0l0,5.676482c0,0.627024 -0.508272,1.135296 -1.135296,1.135296l-13.623558,0c-0.627002,0 -1.135296,-0.508272 -1.135296,-1.135296l0,-13.623558c0,-0.627002 0.508295,-1.135296 1.135296,-1.135296l5.676482,0l0,1.702945l-5.108834,0z"/>
  <path stroke="null" id="svg_2" fill="#FBFBFE" d="m9.013622,8.253489l-8.90697,8.90702l-1.06066,-1.06068l8.90703,-8.907l1.0606,1.06066z"/>
  <path stroke="null" id="svg_8" fill="#FBFBFE" d="m3.098886,7.075209l5.993036,0l0,1.5l-5.993036,0l0,-1.5z"/>
  <path transform="rotate(90 8.32381534576416,10.109331130981447) " stroke="null" id="svg_5" fill="#FBFBFE" d="m5.327298,9.359331l5.993036,0l0,1.5l-5.993036,0l0,-1.5z"/>
  <path stroke="null" id="svg_3" fill="#FBFBFE" d="m6.664345,0.111421l9.279944,0l0,1.637637l-9.279944,0l0,-1.637637z"/>
  <path stroke="null" id="svg_4" fill="#FBFBFE" d="m15.973783,0.111421l0,9.614206l-1.696625,0l0,-9.614206l1.696625,0z"/>
  <rect id="svg_9" height="2.339833" width="3.398329" y="-1.278377" x="14.434538" fill-opacity="null" stroke-opacity="null" stroke-width="null" stroke="null" fill="#FBFBFE"/>
  <rect id="svg_10" height="0.05571" width="0" y="7.245299" x="34.82451" fill-opacity="null" stroke-opacity="null" stroke-width="null" stroke="null" fill="#FBFBFE"/>
 </g>
</svg>